<svg version="1.1" xmlns="http://www.w3.org/2000/svg" viewBox="0 0 312 262" width="312" height="262" class="excalidraw-svg"><!-- svg-source:excalidraw --><metadata></metadata><defs><style class="style-fonts">
      </style></defs><rect x="0" y="0" width="312" height="262" fill="#ffffff"></rect><g stroke-linecap="round" transform="translate(10 10) rotate(0 139.5 121)"><path d="M32 0 C83.97 1.63, 137.2 -0.37, 247 0 M32 0 C105.52 -0.67, 179.16 -0.25, 247 0 M247 0 C269.56 0.39, 278.28 10.91, 279 32 M247 0 C269.4 -0.82, 277.61 9.1, 279 32 M279 32 C276.1 101.24, 278.87 174.57, 279 210 M279 32 C277.02 96.08, 276.53 159.22, 279 210 M279 210 C279 232.95, 269.12 240.02, 247 242 M279 210 C281.25 229.19, 268.5 242.35, 247 242 M247 242 C170.08 241.79, 94.16 243.55, 32 242 M247 242 C185.01 242.84, 123.12 242.34, 32 242 M32 242 C10.75 241.06, -1.49 230.47, 0 210 M32 242 C10.99 242.42, 1.03 232.94, 0 210 M0 210 C0.08 142.32, -0.2 76.17, 0 32 M0 210 C0.44 149.36, 0.64 88.34, 0 32 M0 32 C-1.33 10.98, 10.19 0.98, 32 0 M0 32 C0.56 10.1, 9.24 -2.29, 32 0" stroke="#1e1e1e" stroke-width="2" fill="none"></path></g><g stroke-linecap="round" transform="translate(138 41) rotate(0 82 53)"><path d="M103.75 13.5 C114.38 17.93, 125.39 24.78, 143.25 40.5 M103.75 13.5 C115.59 22.24, 127.39 29.06, 143.25 40.5 M143.25 40.5 C162.45 54.37, 163.79 54.05, 143.25 67.5 M143.25 40.5 C164.82 54.63, 164.45 55.54, 143.25 67.5 M143.25 67.5 C131.41 73.01, 122.83 80.79, 103.75 92.5 M143.25 67.5 C129.19 75.87, 115.69 84.65, 103.75 92.5 M103.75 92.5 C81.7 106.01, 83.79 105.92, 62.25 92.5 M103.75 92.5 C81.3 106.84, 82.6 107.31, 62.25 92.5 M62.25 92.5 C52.53 87.87, 44.06 80.72, 20.75 67.5 M62.25 92.5 C53.55 87.74, 42.63 80.82, 20.75 67.5 M20.75 67.5 C-0.06 55.82, -1.75 53.64, 20.75 40.5 M20.75 67.5 C-1.98 54.39, -0.59 54.84, 20.75 40.5 M20.75 40.5 C34.72 32.21, 50.03 20.65, 62.25 13.5 M20.75 40.5 C31.97 33.27, 41.68 27.31, 62.25 13.5 M62.25 13.5 C82.35 -0.41, 82.52 0.11, 103.75 13.5 M62.25 13.5 C82.86 -1.11, 81.55 -2.11, 103.75 13.5" stroke="#1e1e1e" stroke-width="2" fill="none"></path></g><g transform="translate(253 119) rotate(0 0.00005000000000165983 0.00005000000000165983)" stroke="none"><path fill="#1e1e1e" d="M 3.14,-3.14 Q 3.14,-3.14 3.55,-2.55 3.97,-1.97 4.18,-1.28 4.40,-0.59 4.38,0.11 4.36,0.83 4.11,1.51 3.86,2.18 3.41,2.74 2.96,3.30 2.36,3.69 1.75,4.07 1.05,4.25 0.36,4.42 -0.35,4.36 -1.07,4.30 -1.73,4.02 -2.39,3.74 -2.92,3.26 -3.46,2.78 -3.81,2.15 -4.16,1.53 -4.30,0.82 -4.43,0.11 -4.34,-0.59 -4.24,-1.30 -3.92,-1.94 -3.60,-2.59 -3.09,-3.09 -2.59,-3.60 -1.94,-3.92 -1.30,-4.24 -0.59,-4.34 0.12,-4.43 0.82,-4.30 1.53,-4.16 2.15,-3.81 2.78,-3.46 3.26,-2.92 3.74,-2.39 4.02,-1.73 4.31,-1.07 4.36,-0.35 4.42,0.36 4.25,1.05 4.07,1.75 3.69,2.36 3.30,2.96 2.74,3.41 2.18,3.86 1.51,4.11 0.83,4.36 0.11,4.38 -0.60,4.40 -1.28,4.18 -1.97,3.97 -2.55,3.55 -3.14,3.13 -3.14,3.14 -3.14,3.14 -3.47,2.71 -3.80,2.29 -4.02,1.80 -4.24,1.32 -4.33,0.79 -4.43,0.26 -4.40,-0.26 -4.36,-0.80 -4.20,-1.31 -4.04,-1.82 -3.77,-2.28 -3.49,-2.73 -3.11,-3.11 -2.73,-3.49 -2.28,-3.77 -1.82,-4.05 -1.31,-4.20 -0.80,-4.36 -0.26,-4.40 0.26,-4.43 0.79,-4.33 1.32,-4.24 1.80,-4.02 2.29,-3.80 2.71,-3.47 3.14,-3.14 3.14,-3.14 L 3.14,-3.14 Z"></path></g></svg>