<svg version="1.1" xmlns="http://www.w3.org/2000/svg" viewBox="0 0 949.4456677532693 631.7390249660546" width="949.4456677532693" height="631.7390249660546" class="excalidraw-svg"><!-- svg-source:excalidraw --><metadata></metadata><defs><style class="style-fonts">
      </style></defs><rect x="0" y="0" width="949.4456677532693" height="631.7390249660546" fill="#ffffff"></rect><g transform="translate(303.4456677532693 292.73902496605456) rotate(0 138 61.5)" stroke="none"><path fill="#1e1e1e" d="M -1.93,-2.45 Q -1.93,-2.45 2.14,-5.57 6.22,-8.68 17.46,-13.62 28.71,-18.56 42.46,-22.35 56.21,-26.15 72.20,-28.62 88.18,-31.09 102.20,-32.13 116.23,-33.17 129.73,-33.03 143.24,-32.89 154.30,-31.08 165.37,-29.27 173.53,-27.34 181.68,-25.41 188.67,-23.12 195.65,-20.84 205.60,-16.38 215.56,-11.92 223.27,-7.70 230.99,-3.48 235.99,-0.53 241.00,2.41 245.31,6.08 249.62,9.76 253.13,13.03 256.65,16.29 259.66,19.78 262.68,23.28 265.18,27.16 267.68,31.05 269.47,34.10 271.26,37.15 272.91,39.40 274.56,41.65 275.76,45.38 276.96,49.12 277.80,52.01 278.63,54.90 279.42,58.89 280.21,62.89 279.08,68.90 277.96,74.91 276.46,78.51 274.97,82.11 272.67,85.89 270.37,89.66 267.57,93.51 264.76,97.36 261.73,100.78 258.70,104.19 254.49,108.49 250.29,112.80 245.83,116.68 241.36,120.56 236.77,123.70 232.18,126.83 228.00,129.82 223.82,132.80 219.57,135.03 215.31,137.26 211.25,139.32 207.20,141.37 202.47,143.16 197.74,144.95 194.06,146.34 190.38,147.72 185.65,149.40 180.92,151.08 175.01,152.41 169.09,153.74 163.45,154.86 157.81,155.98 153.60,156.50 149.38,157.01 144.08,157.20 138.78,157.40 132.22,157.48 125.67,157.55 119.31,157.00 112.96,156.45 108.19,155.63 103.43,154.80 100.45,154.37 97.48,153.93 94.07,152.16 90.65,150.39 87.46,147.78 84.27,145.18 81.17,141.60 78.07,138.03 75.38,134.83 72.69,131.63 70.29,128.14 67.90,124.65 66.17,121.01 64.43,117.36 63.28,114.35 62.12,111.35 61.47,109.08 60.82,106.81 59.85,103.27 58.87,99.72 58.67,97.13 58.47,94.54 58.99,91.96 59.51,89.38 61.86,84.87 64.21,80.36 66.67,77.58 69.13,74.80 71.07,72.86 73.02,70.93 75.45,69.13 77.88,67.33 80.11,65.93 82.34,64.52 84.86,63.28 87.38,62.03 91.02,60.97 94.67,59.91 98.50,59.04 102.33,58.16 104.61,57.59 106.89,57.01 110.87,56.12 114.84,55.22 118.93,54.94 123.01,54.66 126.16,54.98 129.32,55.31 132.17,56.07 135.02,56.84 137.29,57.80 139.55,58.77 142.15,60.52 144.75,62.28 147.07,64.28 149.38,66.27 151.37,68.41 153.35,70.55 155.35,73.35 157.35,76.14 158.88,78.59 160.41,81.03 161.32,84.12 162.24,87.22 162.61,89.36 162.98,91.51 163.28,94.77 163.59,98.02 162.94,100.66 162.30,103.29 161.35,105.51 160.40,107.73 158.56,109.77 156.72,111.80 154.20,113.55 151.68,115.30 146.64,117.77 141.60,120.23 138.58,120.65 135.55,121.07 130.56,121.27 125.56,121.46 121.85,121.24 118.15,121.01 117.02,120.93 115.89,120.84 114.98,120.61 114.06,120.39 113.27,119.88 112.47,119.37 111.88,118.63 111.29,117.89 110.97,117.01 110.64,116.12 110.62,115.18 110.59,114.23 110.87,113.33 111.15,112.43 111.70,111.66 112.25,110.89 113.02,110.34 113.79,109.79 114.69,109.52 115.59,109.24 116.54,109.27 117.48,109.30 118.37,109.62 119.25,109.95 119.99,110.54 120.72,111.13 121.23,111.93 121.74,112.73 121.97,113.64 122.19,114.56 122.11,115.50 122.04,116.44 121.66,117.31 121.29,118.18 120.66,118.88 120.03,119.58 119.20,120.04 118.38,120.51 117.45,120.68 116.52,120.86 115.59,120.73 114.65,120.60 113.81,120.18 112.96,119.76 112.30,119.09 111.63,118.43 111.21,117.58 110.79,116.73 110.67,115.80 110.54,114.86 110.72,113.93 110.90,113.01 111.36,112.18 111.83,111.36 112.53,110.73 113.24,110.10 114.11,109.73 114.97,109.36 115.92,109.28 116.86,109.21 116.86,109.21 116.85,109.21 118.94,109.50 121.02,109.79 123.17,110.07 125.33,110.34 129.68,110.11 134.03,109.89 136.14,109.61 138.26,109.33 141.59,107.63 144.93,105.93 147.46,104.33 149.99,102.73 151.13,100.46 152.27,98.18 152.27,95.56 152.27,92.93 151.89,89.65 151.50,86.37 150.27,84.36 149.04,82.34 147.25,80.06 145.45,77.79 143.93,76.10 142.41,74.41 140.53,72.81 138.65,71.22 136.79,69.94 134.92,68.65 131.60,67.27 128.27,65.88 123.85,65.63 119.44,65.38 116.24,65.43 113.04,65.48 108.88,66.16 104.72,66.84 101.16,68.00 97.60,69.17 94.67,70.19 91.74,71.22 89.61,72.19 87.48,73.15 85.54,74.24 83.60,75.32 81.62,76.68 79.64,78.04 77.98,79.47 76.32,80.91 74.36,83.34 72.39,85.78 70.98,87.77 69.57,89.76 68.67,92.06 67.76,94.36 67.75,97.73 67.74,101.10 68.21,105.15 68.67,109.21 69.41,112.00 70.15,114.79 71.52,118.01 72.89,121.24 75.10,124.45 77.31,127.66 80.03,130.75 82.75,133.84 85.63,136.95 88.51,140.05 91.26,142.35 94.01,144.64 96.46,146.28 98.91,147.91 101.62,148.74 104.33,149.56 108.88,150.35 113.42,151.13 119.51,151.66 125.60,152.18 132.08,152.08 138.57,151.99 143.66,151.78 148.75,151.56 152.75,151.12 156.75,150.67 162.31,149.54 167.88,148.40 173.46,147.13 179.04,145.85 183.75,144.12 188.47,142.38 192.15,141.14 195.82,139.90 200.27,138.21 204.71,136.52 208.72,134.44 212.73,132.37 216.63,130.30 220.52,128.23 224.70,125.16 228.89,122.08 233.14,119.08 237.39,116.08 241.57,112.29 245.75,108.49 249.69,104.20 253.63,99.91 256.24,96.64 258.85,93.36 261.20,89.59 263.55,85.81 265.27,82.48 266.99,79.14 268.18,75.48 269.37,71.82 270.39,67.64 271.42,63.46 271.37,60.06 271.33,56.65 270.79,53.83 270.25,51.01 269.56,48.08 268.88,45.14 267.45,42.52 266.03,39.90 264.64,36.89 263.25,33.88 260.97,30.29 258.69,26.70 255.88,23.43 253.06,20.15 249.62,16.95 246.18,13.76 242.25,10.35 238.31,6.94 233.38,4.04 228.46,1.14 220.92,-2.97 213.39,-7.09 203.70,-11.44 194.00,-15.80 187.23,-18.01 180.46,-20.22 172.48,-22.10 164.50,-23.98 153.84,-25.74 143.17,-27.49 129.90,-27.61 116.63,-27.73 102.83,-26.68 89.03,-25.62 73.37,-23.17 57.72,-20.72 44.37,-16.99 31.02,-13.26 20.45,-8.61 9.87,-3.96 5.90,-0.75 1.93,2.45 1.60,2.65 1.28,2.84 0.92,2.95 0.56,3.07 0.19,3.09 -0.18,3.11 -0.55,3.05 -0.92,2.98 -1.26,2.83 -1.61,2.67 -1.90,2.44 -2.20,2.21 -2.43,1.91 -2.67,1.61 -2.82,1.27 -2.98,0.93 -3.05,0.56 -3.11,0.19 -3.09,-0.18 -3.07,-0.55 -2.96,-0.91 -2.85,-1.27 -2.65,-1.60 -2.46,-1.92 -2.19,-2.19 -1.93,-2.45 -1.93,-2.45 L -1.93,-2.45 Z"></path></g><g transform="translate(293.4456677532693 563.7390249660546) rotate(0 323 -63)" stroke="none"><path fill="#1e1e1e" d="M 0.64,-3.05 Q 0.64,-3.05 11.55,-0.69 22.46,1.67 42.86,5.27 63.25,8.88 89.72,12.72 116.19,16.57 150.72,20.80 185.24,25.03 222.35,29.42 259.45,33.82 308.26,38.56 357.06,43.31 389.31,46.19 421.55,49.08 443.57,50.59 465.59,52.11 482.70,53.04 499.81,53.97 515.39,54.37 530.97,54.77 542.20,54.94 553.42,55.11 562.13,54.61 570.83,54.11 577.90,53.04 584.97,51.98 592.16,49.84 599.35,47.70 604.58,45.13 609.81,42.56 613.65,39.82 617.50,37.08 621.84,31.78 626.19,26.48 629.18,21.69 632.18,16.90 635.12,9.55 638.06,2.19 639.30,-2.85 640.53,-7.90 641.34,-14.57 642.15,-21.23 642.50,-26.93 642.85,-32.62 642.71,-43.31 642.57,-54.01 641.66,-62.79 640.74,-71.57 638.64,-82.13 636.55,-92.69 635.08,-99.21 633.61,-105.73 631.86,-111.59 630.10,-117.45 628.49,-122.85 626.87,-128.26 625.04,-133.98 623.21,-139.70 621.86,-143.86 620.50,-148.02 619.06,-152.69 617.61,-157.35 616.08,-160.58 614.55,-163.82 613.43,-165.72 612.31,-167.63 610.81,-170.06 609.31,-172.50 607.29,-174.70 605.26,-176.91 604.08,-174.78 602.89,-172.66 600.65,-169.42 598.41,-166.18 595.21,-161.98 592.02,-157.78 588.87,-153.51 585.72,-149.25 581.33,-144.17 576.94,-139.10 571.90,-133.30 566.87,-127.50 562.97,-123.05 559.07,-118.60 555.99,-114.77 552.91,-110.94 549.63,-105.96 546.35,-100.98 543.49,-96.28 540.64,-91.58 538.28,-87.32 535.93,-83.05 535.14,-80.81 534.35,-78.57 534.12,-78.25 533.89,-77.93 533.59,-77.67 533.29,-77.42 532.94,-77.24 532.59,-77.06 532.20,-76.97 531.82,-76.89 531.42,-76.89 531.03,-76.90 530.65,-77.00 530.27,-77.10 529.92,-77.29 529.58,-77.48 529.29,-77.74 529.00,-78.01 528.78,-78.34 528.56,-78.66 528.42,-79.04 528.29,-79.41 528.25,-79.80 528.21,-80.19 528.26,-80.58 528.32,-80.97 528.46,-81.34 528.61,-81.70 522.82,-91.19 517.03,-100.67 512.02,-109.23 507.00,-117.78 501.40,-128.11 495.79,-138.44 492.28,-144.83 488.78,-151.21 487.11,-153.83 485.44,-156.45 485.27,-156.93 485.10,-157.42 485.09,-157.93 485.08,-158.44 485.23,-158.93 485.39,-159.42 485.69,-159.84 485.99,-160.25 486.41,-160.55 486.83,-160.84 487.32,-160.99 487.81,-161.14 488.33,-161.12 488.84,-161.10 489.32,-160.92 489.80,-160.74 490.20,-160.41 490.60,-160.09 490.87,-159.65 491.14,-159.22 491.26,-158.72 491.38,-158.22 491.34,-157.71 491.29,-157.20 491.08,-156.73 490.88,-156.26 490.53,-155.88 490.19,-155.50 489.74,-155.25 489.29,-155.00 488.78,-154.91 488.28,-154.82 487.77,-154.89 487.26,-154.96 486.80,-155.20 486.35,-155.43 485.99,-155.79 485.63,-156.16 485.40,-156.62 485.18,-157.08 485.11,-157.59 485.05,-158.10 485.15,-158.60 485.25,-159.11 485.51,-159.55 485.76,-160.00 486.15,-160.34 486.53,-160.68 487.00,-160.88 487.48,-161.07 487.99,-161.11 488.50,-161.15 489.00,-161.02 489.50,-160.89 489.93,-160.61 490.36,-160.33 490.67,-159.93 490.99,-159.53 490.99,-159.53 490.99,-159.53 492.33,-156.73 493.67,-153.93 497.24,-147.56 500.82,-141.20 506.45,-131.00 512.08,-120.80 517.28,-112.16 522.48,-103.53 527.10,-94.90 531.72,-86.26 533.03,-82.42 534.35,-78.57 534.12,-78.25 533.89,-77.93 533.59,-77.67 533.29,-77.42 532.94,-77.24 532.59,-77.06 532.20,-76.97 531.82,-76.89 531.43,-76.89 531.03,-76.90 530.65,-77.00 530.27,-77.10 529.92,-77.29 529.58,-77.48 529.29,-77.74 529.00,-78.01 528.78,-78.34 528.56,-78.66 528.42,-79.04 528.29,-79.41 528.25,-79.80 528.21,-80.19 528.26,-80.58 528.32,-80.97 528.46,-81.34 528.61,-81.70 529.82,-83.71 531.04,-85.72 533.40,-90.11 535.76,-94.49 538.60,-99.32 541.44,-104.15 544.78,-109.41 548.12,-114.67 551.16,-118.70 554.20,-122.72 557.92,-127.29 561.65,-131.86 566.44,-137.82 571.24,-143.77 575.09,-148.77 578.94,-153.76 581.66,-158.31 584.38,-162.86 586.87,-167.20 589.37,-171.55 591.71,-175.99 594.06,-180.44 596.14,-182.95 598.22,-185.47 600.63,-186.72 603.05,-187.98 605.84,-187.56 608.63,-187.15 610.47,-185.03 612.31,-182.90 614.34,-179.69 616.38,-176.48 617.38,-173.43 618.39,-170.37 619.09,-168.23 619.80,-166.08 621.21,-162.49 622.63,-158.91 624.06,-154.28 625.50,-149.65 626.86,-145.47 628.21,-141.30 630.06,-135.53 631.90,-129.76 633.52,-124.36 635.14,-118.96 636.94,-112.92 638.74,-106.89 640.22,-100.30 641.70,-93.71 643.83,-82.91 645.97,-72.11 646.90,-63.09 647.82,-54.08 647.96,-43.19 648.09,-32.30 647.73,-26.45 647.37,-20.59 646.50,-13.62 645.63,-6.64 644.29,-1.24 642.94,4.15 639.79,11.92 636.64,19.68 633.44,24.76 630.23,29.84 625.40,35.59 620.57,41.34 616.35,44.31 612.12,47.28 606.49,50.01 600.86,52.74 593.31,54.97 585.76,57.19 578.45,58.28 571.14,59.37 562.24,59.88 553.34,60.39 542.09,60.22 530.84,60.06 515.18,59.66 499.53,59.27 482.37,58.35 465.22,57.42 443.15,55.92 421.08,54.41 388.81,51.55 356.54,48.68 307.68,43.96 258.81,39.23 221.69,34.88 184.58,30.52 149.98,26.33 115.39,22.14 88.83,18.36 62.26,14.57 41.74,11.05 21.23,7.52 10.29,5.29 -0.64,3.05 -1.00,2.93 -1.35,2.81 -1.67,2.61 -1.99,2.40 -2.24,2.13 -2.50,1.86 -2.69,1.53 -2.88,1.20 -2.98,0.84 -3.08,0.48 -3.09,0.10 -3.11,-0.27 -3.03,-0.63 -2.95,-1.00 -2.79,-1.34 -2.63,-1.68 -2.39,-1.97 -2.15,-2.26 -1.84,-2.49 -1.54,-2.71 -1.19,-2.86 -0.85,-3.00 -0.47,-3.06 -0.10,-3.12 0.26,-3.08 0.64,-3.05 0.64,-3.05 L 0.64,-3.05 Z"></path></g><g transform="translate(658.4456677532693 299.73902496605456) rotate(0 -3.5 67)" stroke="none"><path fill="#1e1e1e" d="M 3.31,-1.16 Q 3.31,-1.16 4.92,3.75 6.53,8.68 9.22,18.35 11.91,28.02 13.62,36.22 15.32,44.42 16.04,52.05 16.76,59.68 17.05,66.38 17.33,73.08 16.86,78.66 16.40,84.24 15.69,88.16 14.98,92.07 13.87,95.17 12.77,98.26 11.10,101.78 9.42,105.31 7.17,108.71 4.91,112.11 2.13,115.53 -0.64,118.94 -3.60,122.13 -6.57,125.33 -9.62,128.00 -12.67,130.66 -14.83,132.30 -16.98,133.94 -17.93,135.03 -18.88,136.11 -19.37,136.45 -19.86,136.79 -20.44,136.95 -21.01,137.12 -21.61,137.09 -22.20,137.06 -22.76,136.84 -23.31,136.62 -23.77,136.24 -24.23,135.86 -24.54,135.35 -24.85,134.84 -24.98,134.26 -25.11,133.68 -25.05,133.08 -24.99,132.49 -24.74,131.95 -24.49,131.41 -24.09,130.97 -23.68,130.53 -23.15,130.25 -22.63,129.97 -22.04,129.87 -21.45,129.77 -20.87,129.86 -20.28,129.96 -19.75,130.23 -19.22,130.51 -18.81,130.94 -18.39,131.37 -18.14,131.91 -17.89,132.45 -17.82,133.04 -17.75,133.63 -17.88,134.22 -18.00,134.80 -18.30,135.31 -18.61,135.82 -19.06,136.21 -19.51,136.60 -20.07,136.83 -20.62,137.05 -21.21,137.09 -21.81,137.12 -22.38,136.96 -22.96,136.81 -23.45,136.48 -23.95,136.15 -24.31,135.67 -24.68,135.20 -24.87,134.64 -25.07,134.07 -25.07,133.48 -25.07,132.88 -24.89,132.31 -24.70,131.75 -24.34,131.27 -23.98,130.79 -23.98,130.79 -23.98,130.79 -22.38,129.43 -20.77,128.06 -18.71,127.01 -16.65,125.96 -13.83,123.64 -11.01,121.32 -8.29,118.20 -5.56,115.09 -3.07,111.75 -0.58,108.42 1.43,105.44 3.46,102.45 5.09,99.04 6.73,95.64 8.00,93.26 9.27,90.88 10.08,87.33 10.90,83.78 11.31,78.56 11.73,73.34 11.38,66.79 11.04,60.25 10.28,52.96 9.52,45.67 7.74,37.70 5.96,29.73 3.16,20.29 0.36,10.86 -1.47,6.01 -3.31,1.16 -3.40,0.75 -3.49,0.34 -3.48,-0.08 -3.47,-0.50 -3.36,-0.91 -3.25,-1.32 -3.04,-1.69 -2.84,-2.06 -2.55,-2.37 -2.26,-2.68 -1.91,-2.91 -1.55,-3.14 -1.16,-3.28 -0.76,-3.42 -0.33,-3.47 0.08,-3.51 0.50,-3.45 0.91,-3.39 1.31,-3.23 1.70,-3.07 2.04,-2.82 2.39,-2.57 2.66,-2.25 2.93,-1.92 3.12,-1.54 3.31,-1.16 3.31,-1.16 L 3.31,-1.16 Z"></path></g><g transform="translate(297.4456677532693 175.73902496605456) rotate(0 236 107)" stroke="none"><path fill="#1e1e1e" d="M -0.77,-3.08 Q -0.77,-3.08 2.66,-4.02 6.09,-4.95 12.62,-5.83 19.14,-6.71 27.55,-8.18 35.96,-9.65 46.55,-10.85 57.15,-12.05 69.15,-12.83 81.16,-13.61 90.88,-13.93 100.60,-14.25 110.78,-14.38 120.95,-14.51 128.44,-14.56 135.92,-14.60 141.19,-14.33 146.46,-14.06 152.55,-13.06 158.64,-12.07 167.27,-10.20 175.90,-8.33 183.84,-6.68 191.78,-5.03 197.69,-4.04 203.61,-3.06 210.26,-1.47 216.91,0.11 222.34,1.65 227.77,3.20 234.45,5.60 241.13,8.01 249.09,10.74 257.05,13.46 263.40,16.09 269.74,18.72 274.95,20.67 280.16,22.63 285.13,25.26 290.10,27.89 293.93,30.16 297.76,32.43 300.73,34.49 303.71,36.55 306.62,38.47 309.53,40.40 312.78,42.71 316.02,45.03 319.92,47.77 323.82,50.52 327.01,52.82 330.20,55.12 333.31,57.55 336.42,59.98 339.22,62.08 342.01,64.19 344.98,66.92 347.95,69.66 349.99,71.63 352.03,73.61 353.76,75.18 355.48,76.74 357.12,79.19 358.76,81.64 361.12,84.32 363.47,87.00 364.78,88.71 366.08,90.42 367.99,93.26 369.90,96.11 371.61,98.42 373.31,100.73 375.58,104.53 377.84,108.33 379.93,112.04 382.01,115.75 383.83,119.07 385.65,122.39 387.29,124.75 388.93,127.12 390.36,129.37 391.79,131.62 393.84,134.78 395.89,137.94 398.18,141.76 400.46,145.59 402.79,149.20 405.11,152.82 407.51,156.39 409.90,159.97 412.33,163.51 414.76,167.06 416.56,169.32 418.36,171.58 419.80,173.35 421.24,175.12 423.75,178.27 426.27,181.42 428.32,185.12 430.37,188.83 432.31,192.01 434.26,195.19 435.97,197.20 437.68,199.20 439.21,201.40 440.74,203.60 443.42,206.68 446.11,209.77 447.88,211.44 449.65,213.12 451.59,214.64 453.53,216.16 455.24,217.52 456.95,218.88 459.34,219.44 461.73,220.00 464.29,219.73 466.84,219.46 469.26,219.42 471.68,219.39 472.73,219.56 473.79,219.73 474.73,220.23 475.68,220.73 476.41,221.51 477.15,222.29 477.59,223.26 478.04,224.23 478.16,225.29 478.27,226.35 478.04,227.40 477.81,228.44 477.26,229.36 476.71,230.27 475.90,230.97 475.08,231.66 474.09,232.05 473.09,232.45 472.03,232.51 470.96,232.56 469.93,232.28 468.90,231.99 468.01,231.39 467.13,230.79 466.48,229.94 465.84,229.09 465.49,228.08 465.15,227.06 465.15,225.99 465.15,224.92 465.50,223.91 465.84,222.90 466.48,222.05 467.13,221.20 468.02,220.60 468.90,220.00 469.93,219.71 470.96,219.42 472.03,219.48 473.10,219.54 474.09,219.94 475.08,220.33 475.90,221.03 476.71,221.72 477.26,222.63 477.82,223.55 478.04,224.60 478.27,225.64 478.16,226.70 478.04,227.77 477.59,228.74 477.14,229.71 476.41,230.48 475.67,231.26 474.73,231.76 473.78,232.26 472.73,232.43 471.67,232.60 471.67,232.60 471.67,232.60 469.24,232.56 466.81,232.52 464.13,232.35 461.46,232.18 459.19,231.51 456.91,230.83 454.26,230.00 451.60,229.16 449.82,227.65 448.03,226.14 445.76,224.01 443.48,221.89 442.25,220.07 441.02,218.25 438.68,215.27 436.34,212.28 434.86,210.24 433.38,208.21 432.30,206.22 431.21,204.23 429.46,201.80 427.72,199.37 425.60,196.17 423.49,192.97 421.39,189.79 419.28,186.61 417.14,182.98 415.00,179.36 413.90,177.40 412.80,175.44 411.33,172.99 409.86,170.54 407.31,167.06 404.75,163.58 402.18,160.09 399.61,156.60 397.02,153.06 394.43,149.52 391.92,145.99 389.41,142.46 386.93,139.13 384.46,135.80 383.36,133.61 382.25,131.42 380.65,128.74 379.04,126.06 377.27,122.93 375.50,119.79 373.20,116.43 370.90,113.07 368.26,109.71 365.62,106.34 363.91,103.97 362.19,101.60 360.12,98.84 358.04,96.08 356.03,92.68 354.02,89.27 351.86,85.73 349.69,82.20 348.16,80.35 346.63,78.50 345.07,76.50 343.51,74.50 340.70,71.93 337.89,69.37 335.22,67.12 332.55,64.87 329.55,62.47 326.56,60.07 323.50,57.77 320.44,55.48 316.41,52.81 312.38,50.15 309.14,47.85 305.90,45.55 303.02,43.39 300.14,41.23 297.61,39.09 295.07,36.94 291.36,34.74 287.64,32.53 282.97,30.04 278.31,27.55 273.02,25.56 267.72,23.58 261.54,21.01 255.35,18.44 247.35,15.70 239.35,12.96 232.84,10.61 226.33,8.27 221.00,6.75 215.68,5.24 209.21,3.69 202.74,2.14 196.72,1.14 190.70,0.15 182.74,-1.49 174.78,-3.14 166.28,-4.97 157.78,-6.80 151.98,-7.75 146.19,-8.70 141.08,-8.95 135.97,-9.20 128.50,-9.12 121.03,-9.05 110.91,-8.88 100.80,-8.72 91.17,-8.35 81.55,-7.98 69.68,-7.13 57.82,-6.29 47.43,-5.02 37.04,-3.75 28.55,-2.12 20.06,-0.50 13.88,0.50 7.70,1.50 4.23,2.29 0.77,3.08 0.39,3.13 0.01,3.17 -0.37,3.13 -0.75,3.09 -1.10,2.95 -1.46,2.82 -1.78,2.60 -2.10,2.38 -2.35,2.10 -2.61,1.81 -2.79,1.47 -2.96,1.13 -3.06,0.76 -3.15,0.39 -3.15,0.01 -3.15,-0.37 -3.06,-0.74 -2.97,-1.11 -2.79,-1.45 -2.62,-1.79 -2.36,-2.08 -2.11,-2.37 -1.80,-2.59 -1.48,-2.81 -1.12,-2.94 -0.77,-3.08 -0.77,-3.08 L -0.77,-3.08 Z"></path></g><g transform="translate(295.4456677532693 182.73902496605456) rotate(0 -112.5 72.5)" stroke="none"><path fill="#1e1e1e" d="M 1.74,3.48 Q 1.74,3.48 -2.35,5.34 -6.45,7.20 -12.19,10.22 -17.92,13.23 -22.34,15.88 -26.76,18.53 -30.27,21.28 -33.78,24.03 -36.68,26.66 -39.59,29.28 -43.52,32.44 -47.46,35.59 -49.51,37.62 -51.56,39.65 -52.70,41.49 -53.84,43.33 -54.76,45.43 -55.69,47.52 -57.40,50.93 -59.10,54.35 -62.89,60.79 -66.67,67.23 -69.38,72.94 -72.09,78.64 -75.11,83.56 -78.12,88.47 -80.21,91.95 -82.31,95.42 -86.23,100.20 -90.16,104.98 -93.85,109.00 -97.55,113.02 -100.24,115.71 -102.94,118.41 -105.18,120.55 -107.42,122.68 -110.85,125.02 -114.28,127.36 -118.06,129.71 -121.84,132.06 -127.94,134.85 -134.04,137.64 -139.79,139.94 -145.53,142.24 -148.89,143.40 -152.25,144.56 -155.11,145.45 -157.97,146.34 -161.47,147.57 -164.96,148.79 -168.29,149.24 -171.62,149.68 -175.81,148.93 -180.00,148.19 -184.39,146.81 -188.77,145.43 -191.90,144.40 -195.02,143.37 -198.27,141.66 -201.53,139.95 -204.70,138.22 -207.87,136.50 -211.09,134.56 -214.30,132.62 -217.21,130.60 -220.11,128.59 -223.19,126.69 -226.27,124.79 -226.82,124.28 -227.38,123.76 -227.74,123.09 -228.11,122.42 -228.24,121.67 -228.37,120.92 -228.25,120.17 -228.14,119.42 -227.79,118.74 -227.44,118.07 -226.90,117.54 -226.35,117.01 -225.66,116.68 -224.98,116.36 -224.22,116.27 -223.46,116.18 -222.72,116.33 -221.98,116.49 -221.32,116.87 -220.66,117.26 -220.17,117.83 -219.67,118.41 -219.38,119.11 -219.09,119.81 -219.04,120.57 -218.99,121.33 -219.19,122.07 -219.38,122.80 -219.80,123.44 -220.22,124.07 -220.82,124.54 -221.42,125.00 -222.14,125.25 -222.86,125.50 -223.62,125.51 -224.38,125.52 -225.10,125.29 -225.83,125.05 -226.44,124.60 -227.05,124.14 -227.48,123.52 -227.91,122.89 -228.13,122.16 -228.34,121.43 -228.30,120.67 -228.27,119.91 -228.00,119.20 -227.72,118.49 -227.24,117.91 -226.75,117.32 -226.10,116.92 -225.45,116.52 -224.71,116.35 -223.97,116.18 -223.22,116.26 -222.46,116.33 -221.77,116.64 -221.07,116.95 -221.07,116.95 -221.07,116.95 -218.13,119.04 -215.19,121.13 -212.23,122.99 -209.26,124.85 -205.53,127.20 -201.81,129.56 -199.74,131.15 -197.67,132.75 -194.98,134.23 -192.29,135.70 -189.53,136.75 -186.78,137.80 -182.75,138.63 -178.72,139.45 -175.30,139.81 -171.87,140.17 -169.06,140.32 -166.25,140.46 -162.95,140.01 -159.66,139.56 -156.87,139.04 -154.07,138.52 -150.89,137.71 -147.72,136.90 -142.14,134.56 -136.56,132.23 -130.90,129.53 -125.24,126.83 -121.64,124.38 -118.04,121.93 -114.91,119.74 -111.79,117.54 -109.45,115.78 -107.12,114.02 -104.44,111.61 -101.77,109.19 -98.25,105.24 -94.72,101.29 -91.13,96.79 -87.54,92.29 -85.47,88.81 -83.41,85.32 -80.70,80.64 -78.00,75.96 -75.36,69.90 -72.73,63.84 -69.34,57.49 -65.95,51.13 -64.33,47.45 -62.70,43.76 -61.18,41.30 -59.67,38.85 -57.78,36.77 -55.89,34.69 -53.51,32.89 -51.14,31.09 -47.37,27.95 -43.61,24.81 -40.56,22.09 -37.52,19.37 -33.80,16.31 -30.07,13.24 -25.59,10.34 -21.11,7.43 -15.37,4.13 -9.64,0.84 -5.69,-1.32 -1.74,-3.48 -1.30,-3.64 -0.85,-3.80 -0.39,-3.85 0.07,-3.90 0.54,-3.83 1.00,-3.76 1.44,-3.59 1.88,-3.41 2.26,-3.14 2.64,-2.86 2.94,-2.51 3.25,-2.15 3.46,-1.73 3.67,-1.31 3.77,-0.85 3.88,-0.39 3.87,0.07 3.86,0.54 3.74,1.00 3.62,1.45 3.39,1.86 3.16,2.27 2.84,2.62 2.52,2.97 2.13,3.23 1.74,3.48 1.74,3.48 L 1.74,3.48 Z"></path></g><g transform="translate(33.44566775326928 425.73902496605456) rotate(0 122 64.5)" stroke="none"><path fill="#1e1e1e" d="M 1.67,-2.63 Q 1.67,-2.63 7.96,1.44 14.25,5.52 20.78,10.82 27.31,16.11 36.01,22.61 44.71,29.11 59.04,39.36 73.37,49.61 86.05,58.27 98.73,66.93 112.18,76.09 125.62,85.24 136.46,91.98 147.30,98.72 156.45,103.57 165.60,108.42 173.77,112.19 181.93,115.96 186.20,117.54 190.47,119.12 193.25,119.89 196.04,120.65 198.09,121.34 200.15,122.03 203.38,121.79 206.62,121.55 209.05,121.77 211.47,121.98 214.15,122.35 216.83,122.72 219.69,123.17 222.55,123.62 225.21,123.68 227.86,123.73 230.58,123.56 233.30,123.39 236.66,123.30 240.02,123.21 241.65,123.17 243.28,123.13 244.21,123.28 245.15,123.44 245.99,123.88 246.83,124.33 247.48,125.02 248.13,125.71 248.53,126.57 248.93,127.43 249.03,128.37 249.13,129.31 248.93,130.24 248.72,131.17 248.23,131.98 247.74,132.79 247.02,133.41 246.30,134.02 245.42,134.37 244.53,134.72 243.59,134.77 242.64,134.82 241.73,134.57 240.81,134.32 240.03,133.78 239.24,133.25 238.67,132.49 238.09,131.74 237.79,130.84 237.49,129.94 237.49,128.99 237.49,128.04 237.79,127.14 238.10,126.24 238.67,125.49 239.25,124.74 240.03,124.20 240.82,123.67 241.73,123.42 242.65,123.16 243.59,123.22 244.54,123.27 245.42,123.62 246.30,123.97 247.03,124.59 247.75,125.20 248.24,126.01 248.73,126.83 248.93,127.75 249.13,128.68 249.03,129.62 248.93,130.57 248.53,131.43 248.13,132.29 247.47,132.98 246.82,133.67 245.98,134.11 245.14,134.55 244.21,134.71 243.27,134.86 243.27,134.86 243.27,134.86 241.64,134.82 240.01,134.78 236.62,134.68 233.24,134.58 230.14,134.29 227.04,134.01 224.03,133.50 221.02,133.00 218.19,132.51 215.35,132.03 210.88,131.15 206.41,130.28 201.97,129.68 197.54,129.08 195.73,127.77 193.92,126.46 191.28,125.28 188.63,124.09 184.17,122.44 179.71,120.79 171.41,116.96 163.10,113.13 153.79,108.20 144.48,103.28 133.53,96.49 122.59,89.71 109.12,80.57 95.66,71.44 82.91,62.77 70.16,54.11 55.76,43.87 41.35,33.64 32.52,27.13 23.69,20.62 17.36,15.59 11.04,10.57 4.68,6.60 -1.67,2.63 -1.96,2.39 -2.25,2.15 -2.48,1.85 -2.71,1.55 -2.85,1.20 -3.00,0.86 -3.06,0.48 -3.12,0.11 -3.09,-0.25 -3.05,-0.63 -2.93,-0.99 -2.81,-1.34 -2.61,-1.66 -2.41,-1.98 -2.14,-2.24 -1.86,-2.50 -1.54,-2.69 -1.21,-2.87 -0.85,-2.98 -0.49,-3.08 -0.11,-3.09 0.26,-3.11 0.62,-3.03 0.99,-2.96 1.33,-2.79 1.67,-2.63 1.67,-2.63 L 1.67,-2.63 Z"></path></g><g transform="translate(433.4456677532693 562.7390249660546) rotate(0 141.5 -41)" stroke="none"><path fill="#1e1e1e" d="M -0.36,-3.10 Q -0.36,-3.10 12.00,-4.47 24.37,-5.84 38.83,-7.55 53.28,-9.26 68.10,-10.55 82.91,-11.85 94.32,-13.24 105.73,-14.63 121.59,-15.80 137.45,-16.97 169.37,-21.47 201.30,-25.98 219.72,-29.60 238.14,-33.23 248.18,-36.18 258.22,-39.13 263.72,-42.02 269.23,-44.90 272.50,-48.22 275.77,-51.53 276.96,-54.71 278.15,-57.89 278.51,-60.37 278.87,-62.85 278.92,-65.22 278.97,-67.59 278.95,-70.30 278.92,-73.00 278.69,-76.48 278.46,-79.96 278.54,-80.50 278.62,-81.04 278.82,-81.54 279.03,-82.04 279.34,-82.48 279.66,-82.92 280.08,-83.27 280.49,-83.62 280.98,-83.86 281.47,-84.10 282.00,-84.22 282.53,-84.34 283.07,-84.32 283.62,-84.31 284.14,-84.17 284.66,-84.02 285.14,-83.76 285.61,-83.50 286.01,-83.13 286.41,-82.76 286.71,-82.30 287.00,-81.85 287.18,-81.34 287.36,-80.82 287.42,-80.28 287.47,-79.74 285.68,-76.19 283.90,-72.63 279.58,-66.38 275.26,-60.13 270.71,-54.56 266.17,-48.99 261.00,-43.46 255.83,-37.93 251.52,-34.11 247.21,-30.28 243.54,-27.75 239.87,-25.21 238.52,-23.98 237.17,-22.74 236.67,-22.49 236.17,-22.25 235.62,-22.18 235.07,-22.11 234.52,-22.21 233.98,-22.32 233.49,-22.60 233.01,-22.88 232.64,-23.29 232.27,-23.71 232.05,-24.22 231.84,-24.74 231.80,-25.29 231.75,-25.85 231.89,-26.39 232.03,-26.93 232.33,-27.39 232.64,-27.86 233.07,-28.21 233.51,-28.55 234.03,-28.74 234.56,-28.93 235.11,-28.94 235.67,-28.95 236.20,-28.79 236.73,-28.62 237.18,-28.29 237.63,-27.97 237.95,-27.51 238.28,-27.06 238.44,-26.52 238.60,-25.99 238.58,-25.43 238.56,-24.88 238.36,-24.36 238.17,-23.83 237.82,-23.40 237.47,-22.97 236.99,-22.67 236.52,-22.38 235.98,-22.25 235.44,-22.11 234.89,-22.16 234.33,-22.21 233.82,-22.43 233.31,-22.66 232.90,-23.03 232.49,-23.41 232.22,-23.89 231.94,-24.38 231.84,-24.93 231.74,-25.48 231.82,-26.03 231.90,-26.58 232.15,-27.08 232.40,-27.57 232.80,-27.96 233.19,-28.35 233.19,-28.35 233.19,-28.35 234.80,-29.22 236.42,-30.08 239.71,-32.48 243.01,-34.89 246.97,-38.63 250.93,-42.36 255.75,-47.86 260.57,-53.36 264.65,-58.86 268.73,-64.36 273.59,-72.16 278.46,-79.96 278.54,-80.50 278.62,-81.04 278.82,-81.54 279.03,-82.04 279.34,-82.48 279.66,-82.92 280.08,-83.27 280.49,-83.62 280.98,-83.86 281.47,-84.10 282.00,-84.22 282.53,-84.34 283.07,-84.32 283.61,-84.31 284.14,-84.17 284.66,-84.03 285.14,-83.76 285.61,-83.50 286.01,-83.13 286.41,-82.76 286.71,-82.30 287.00,-81.85 287.18,-81.34 287.36,-80.82 287.42,-80.28 287.47,-79.74 287.09,-76.21 286.72,-72.67 286.46,-69.74 286.20,-66.82 285.70,-64.06 285.20,-61.30 284.26,-58.48 283.33,-55.66 281.46,-51.78 279.59,-47.89 275.66,-44.06 271.74,-40.23 265.74,-37.13 259.74,-34.02 249.46,-31.00 239.18,-27.97 220.61,-24.30 202.05,-20.63 169.95,-16.08 137.85,-11.53 122.13,-10.34 106.41,-9.14 94.91,-7.69 83.42,-6.23 68.70,-4.88 53.98,-3.52 39.52,-1.71 25.07,0.09 12.71,1.59 0.36,3.10 -0.01,3.10 -0.39,3.09 -0.75,3.00 -1.12,2.91 -1.45,2.73 -1.78,2.56 -2.06,2.31 -2.34,2.05 -2.56,1.74 -2.77,1.43 -2.90,1.08 -3.03,0.73 -3.08,0.35 -3.12,-0.01 -3.07,-0.38 -3.02,-0.76 -2.89,-1.11 -2.75,-1.46 -2.54,-1.77 -2.32,-2.08 -2.04,-2.33 -1.76,-2.58 -1.42,-2.75 -1.09,-2.92 -0.72,-3.01 -0.36,-3.10 -0.36,-3.10 L -0.36,-3.10 Z"></path></g><g transform="translate(126.53496366011746 444.46627924375974) rotate(0 0.00004999999998744897 0.00005000000000165983)" stroke="none"><path fill="#1e1e1e" d="M 3.14,-3.14 Q 3.14,-3.14 3.55,-2.55 3.97,-1.97 4.18,-1.28 4.40,-0.59 4.38,0.11 4.36,0.83 4.11,1.51 3.86,2.18 3.41,2.74 2.96,3.30 2.36,3.69 1.75,4.07 1.05,4.25 0.36,4.42 -0.35,4.36 -1.07,4.30 -1.73,4.02 -2.39,3.74 -2.92,3.26 -3.46,2.78 -3.81,2.15 -4.16,1.53 -4.30,0.82 -4.43,0.11 -4.34,-0.59 -4.24,-1.30 -3.92,-1.94 -3.60,-2.59 -3.09,-3.09 -2.59,-3.60 -1.94,-3.92 -1.30,-4.24 -0.59,-4.34 0.12,-4.43 0.82,-4.30 1.53,-4.16 2.15,-3.81 2.78,-3.46 3.26,-2.92 3.74,-2.39 4.02,-1.73 4.31,-1.07 4.36,-0.35 4.42,0.36 4.25,1.05 4.07,1.75 3.69,2.36 3.30,2.96 2.74,3.41 2.18,3.86 1.51,4.11 0.83,4.36 0.11,4.38 -0.60,4.40 -1.28,4.18 -1.97,3.97 -2.55,3.55 -3.14,3.13 -3.14,3.14 -3.14,3.14 -3.47,2.71 -3.80,2.29 -4.02,1.80 -4.24,1.32 -4.33,0.79 -4.43,0.26 -4.40,-0.26 -4.36,-0.80 -4.20,-1.31 -4.04,-1.82 -3.77,-2.28 -3.49,-2.73 -3.11,-3.11 -2.73,-3.49 -2.28,-3.77 -1.82,-4.05 -1.31,-4.20 -0.80,-4.36 -0.26,-4.40 0.26,-4.43 0.79,-4.33 1.32,-4.24 1.80,-4.02 2.29,-3.80 2.71,-3.47 3.14,-3.14 3.14,-3.14 L 3.14,-3.14 Z"></path></g><g transform="translate(10 257.37613350370725) rotate(0 65.00589809611995 -1.5855097096614656)" stroke="none"><path fill="#1e1e1e" d="M -0.09,-3.58 Q -0.09,-3.58 8.33,-3.68 16.77,-3.78 27.42,-4.01 38.06,-4.24 48.94,-4.76 59.81,-5.28 70.42,-5.48 81.03,-5.69 90.78,-5.76 100.53,-5.83 108.55,-5.85 116.56,-5.87 120.43,-5.96 124.29,-6.04 125.93,-6.28 127.56,-6.52 128.10,-6.43 128.64,-6.35 129.12,-6.09 129.60,-5.84 129.98,-5.45 130.36,-5.05 130.59,-4.56 130.82,-4.07 130.88,-3.53 130.94,-2.99 130.83,-2.46 130.71,-1.92 130.43,-1.46 130.16,-0.99 129.74,-0.64 129.33,-0.28 128.82,-0.08 128.32,0.12 127.78,0.15 127.23,0.18 126.71,0.04 126.18,-0.10 125.73,-0.40 125.28,-0.70 124.95,-1.13 124.62,-1.56 124.44,-2.08 124.27,-2.59 124.26,-3.14 124.26,-3.68 124.43,-4.20 124.60,-4.71 124.93,-5.15 125.26,-5.58 125.71,-5.89 126.16,-6.20 126.68,-6.35 127.20,-6.49 127.75,-6.47 128.29,-6.44 128.79,-6.24 129.30,-6.04 129.72,-5.69 130.13,-5.34 130.42,-4.88 130.70,-4.41 130.82,-3.88 130.94,-3.35 130.88,-2.81 130.83,-2.27 130.60,-1.77 130.37,-1.28 130.00,-0.88 129.63,-0.49 129.15,-0.23 128.67,0.02 128.13,0.11 127.60,0.20 127.60,0.20 127.60,0.20 125.96,-0.01 124.32,-0.23 120.46,-0.28 116.60,-0.33 108.59,-0.26 100.59,-0.19 90.88,-0.04 81.17,0.09 70.65,0.39 60.14,0.69 49.20,1.36 38.26,2.02 27.60,2.44 16.95,2.86 8.52,3.22 0.09,3.58 -0.33,3.54 -0.76,3.50 -1.17,3.36 -1.57,3.21 -1.94,2.98 -2.30,2.74 -2.59,2.43 -2.89,2.11 -3.10,1.73 -3.31,1.36 -3.43,0.94 -3.54,0.52 -3.55,0.09 -3.56,-0.33 -3.47,-0.75 -3.38,-1.18 -3.19,-1.56 -3.00,-1.95 -2.72,-2.28 -2.44,-2.61 -2.10,-2.87 -1.75,-3.12 -1.35,-3.29 -0.95,-3.45 -0.52,-3.52 -0.09,-3.58 -0.09,-3.58 L -0.09,-3.58 Z"></path></g><g transform="translate(438.30321363394756 37.23386827891562) rotate(0 0.00005000000000165983 0.00004999999998744897)" stroke="none"><path fill="#1e1e1e" d="M 3.14,-3.14 Q 3.14,-3.14 3.55,-2.55 3.97,-1.97 4.18,-1.28 4.40,-0.59 4.38,0.11 4.36,0.83 4.11,1.51 3.86,2.18 3.41,2.74 2.96,3.30 2.36,3.69 1.75,4.07 1.05,4.25 0.36,4.42 -0.35,4.36 -1.07,4.30 -1.73,4.02 -2.39,3.74 -2.92,3.26 -3.46,2.78 -3.81,2.15 -4.16,1.53 -4.30,0.82 -4.43,0.11 -4.34,-0.59 -4.24,-1.30 -3.92,-1.94 -3.60,-2.59 -3.09,-3.09 -2.59,-3.60 -1.94,-3.92 -1.30,-4.24 -0.59,-4.34 0.12,-4.43 0.82,-4.30 1.53,-4.16 2.15,-3.81 2.78,-3.46 3.26,-2.92 3.74,-2.39 4.02,-1.73 4.31,-1.07 4.36,-0.35 4.42,0.36 4.25,1.05 4.07,1.75 3.69,2.36 3.30,2.96 2.74,3.41 2.18,3.86 1.51,4.11 0.83,4.36 0.11,4.38 -0.60,4.40 -1.28,4.18 -1.97,3.97 -2.55,3.55 -3.14,3.13 -3.14,3.14 -3.14,3.14 -3.47,2.71 -3.80,2.29 -4.02,1.80 -4.24,1.32 -4.33,0.79 -4.43,0.26 -4.40,-0.26 -4.36,-0.80 -4.20,-1.31 -4.04,-1.82 -3.77,-2.28 -3.49,-2.73 -3.11,-3.11 -2.73,-3.49 -2.28,-3.77 -1.82,-4.05 -1.31,-4.20 -0.80,-4.36 -0.26,-4.40 0.26,-4.43 0.79,-4.33 1.32,-4.24 1.80,-4.02 2.29,-3.80 2.71,-3.47 3.14,-3.14 3.14,-3.14 L 3.14,-3.14 Z"></path></g><g transform="translate(130.39187885486564 593.4607956217733) rotate(0 0.00004999999998744897 0.00005000000000165983)" stroke="none"><path fill="#1e1e1e" d="M 3.14,-3.14 Q 3.14,-3.14 3.55,-2.55 3.97,-1.97 4.18,-1.28 4.40,-0.59 4.38,0.11 4.36,0.83 4.11,1.51 3.86,2.18 3.41,2.74 2.96,3.30 2.36,3.69 1.75,4.07 1.05,4.25 0.36,4.42 -0.35,4.36 -1.07,4.30 -1.73,4.02 -2.39,3.74 -2.92,3.26 -3.46,2.78 -3.81,2.15 -4.16,1.53 -4.30,0.82 -4.43,0.11 -4.34,-0.59 -4.24,-1.30 -3.92,-1.94 -3.60,-2.59 -3.09,-3.09 -2.59,-3.60 -1.94,-3.92 -1.30,-4.24 -0.59,-4.34 0.12,-4.43 0.82,-4.30 1.53,-4.16 2.15,-3.81 2.78,-3.46 3.26,-2.92 3.74,-2.39 4.02,-1.73 4.31,-1.07 4.36,-0.35 4.42,0.36 4.25,1.05 4.07,1.75 3.69,2.36 3.30,2.96 2.74,3.41 2.18,3.86 1.51,4.11 0.83,4.36 0.11,4.38 -0.60,4.40 -1.28,4.18 -1.97,3.97 -2.55,3.55 -3.14,3.13 -3.14,3.14 -3.14,3.14 -3.47,2.71 -3.80,2.29 -4.02,1.80 -4.24,1.32 -4.33,0.79 -4.43,0.26 -4.40,-0.26 -4.36,-0.80 -4.20,-1.31 -4.04,-1.82 -3.77,-2.28 -3.49,-2.73 -3.11,-3.11 -2.73,-3.49 -2.28,-3.77 -1.82,-4.05 -1.31,-4.20 -0.80,-4.36 -0.26,-4.40 0.26,-4.43 0.79,-4.33 1.32,-4.24 1.80,-4.02 2.29,-3.80 2.71,-3.47 3.14,-3.14 3.14,-3.14 L 3.14,-3.14 Z"></path></g><g transform="translate(307.52366821702566 159.3902657162987) rotate(0 0.00005000000000165983 0.00004999999998744897)" stroke="none"><path fill="#1e1e1e" d="M 3.14,-3.14 Q 3.14,-3.14 3.55,-2.55 3.97,-1.97 4.18,-1.28 4.40,-0.59 4.38,0.11 4.36,0.83 4.11,1.51 3.86,2.18 3.41,2.74 2.96,3.30 2.36,3.69 1.75,4.07 1.05,4.25 0.36,4.42 -0.35,4.36 -1.07,4.30 -1.73,4.02 -2.39,3.74 -2.92,3.26 -3.46,2.78 -3.81,2.15 -4.16,1.53 -4.30,0.82 -4.43,0.11 -4.34,-0.59 -4.24,-1.30 -3.92,-1.94 -3.60,-2.59 -3.09,-3.09 -2.59,-3.60 -1.94,-3.92 -1.30,-4.24 -0.59,-4.34 0.12,-4.43 0.82,-4.30 1.53,-4.16 2.15,-3.81 2.78,-3.46 3.26,-2.92 3.74,-2.39 4.02,-1.73 4.31,-1.07 4.36,-0.35 4.42,0.36 4.25,1.05 4.07,1.75 3.69,2.36 3.30,2.96 2.74,3.41 2.18,3.86 1.51,4.11 0.83,4.36 0.11,4.38 -0.60,4.40 -1.28,4.18 -1.97,3.97 -2.55,3.55 -3.14,3.13 -3.14,3.14 -3.14,3.14 -3.47,2.71 -3.80,2.29 -4.02,1.80 -4.24,1.32 -4.33,0.79 -4.43,0.26 -4.40,-0.26 -4.36,-0.80 -4.20,-1.31 -4.04,-1.82 -3.77,-2.28 -3.49,-2.73 -3.11,-3.11 -2.73,-3.49 -2.28,-3.77 -1.82,-4.05 -1.31,-4.20 -0.80,-4.36 -0.26,-4.40 0.26,-4.43 0.79,-4.33 1.32,-4.24 1.80,-4.02 2.29,-3.80 2.71,-3.47 3.14,-3.14 3.14,-3.14 L 3.14,-3.14 Z"></path></g><g transform="translate(211.5083057590324 43.50965585320341) rotate(0 24.831559256377574 70.35608455973642)" stroke="none"><path fill="#1e1e1e" d="M 3.31,-1.24 Q 3.31,-1.24 6.05,6.41 8.79,14.07 12.28,22.51 15.76,30.95 21.07,46.57 26.38,62.20 31.92,76.85 37.45,91.49 40.78,102.11 44.10,112.72 45.99,119.62 47.87,126.53 49.15,130.32 50.43,134.11 51.20,135.68 51.97,137.25 52.06,137.77 52.14,138.30 52.05,138.82 51.96,139.35 51.71,139.81 51.46,140.28 51.07,140.65 50.68,141.01 50.20,141.23 49.72,141.45 49.19,141.51 48.66,141.56 48.14,141.44 47.62,141.33 47.17,141.05 46.71,140.77 46.37,140.37 46.03,139.96 45.83,139.46 45.64,138.97 45.61,138.44 45.59,137.91 45.73,137.40 45.88,136.88 46.18,136.45 46.48,136.01 46.90,135.69 47.33,135.37 47.83,135.20 48.34,135.03 48.87,135.04 49.40,135.04 49.91,135.21 50.41,135.38 50.83,135.71 51.25,136.03 51.55,136.47 51.84,136.92 51.98,137.43 52.12,137.94 52.09,138.47 52.06,139.00 51.86,139.50 51.66,139.99 51.31,140.39 50.97,140.80 50.51,141.07 50.05,141.34 49.53,141.45 49.01,141.56 48.49,141.50 47.96,141.44 47.48,141.22 46.99,140.99 46.61,140.62 46.23,140.25 45.98,139.78 45.73,139.31 45.73,139.31 45.73,139.31 45.42,137.60 45.10,135.88 43.82,131.94 42.54,128.00 40.64,121.21 38.74,114.41 35.40,103.98 32.07,93.55 26.40,78.84 20.74,64.14 15.39,48.76 10.03,33.38 6.32,24.88 2.62,16.38 -0.34,8.81 -3.31,1.24 -3.41,0.82 -3.51,0.41 -3.51,-0.01 -3.51,-0.44 -3.41,-0.85 -3.30,-1.26 -3.10,-1.64 -2.90,-2.02 -2.62,-2.34 -2.33,-2.66 -1.98,-2.90 -1.63,-3.14 -1.23,-3.29 -0.83,-3.44 -0.41,-3.49 0.01,-3.54 0.43,-3.48 0.86,-3.43 1.25,-3.28 1.65,-3.13 2.00,-2.88 2.35,-2.64 2.64,-2.32 2.92,-2.00 3.12,-1.62 3.31,-1.24 3.31,-1.24 L 3.31,-1.24 Z"></path></g><g transform="translate(418.0451960386436 57.231364864992486) rotate(0 139.66989324362072 36.43562432442283)" stroke="none"><path fill="#1e1e1e" d="M -1.90,-2.86 Q -1.90,-2.86 0.33,-4.54 2.57,-6.22 4.40,-7.49 6.22,-8.76 10.41,-9.43 14.60,-10.11 19.75,-10.12 24.90,-10.14 32.11,-10.08 39.33,-10.01 51.60,-7.59 63.88,-5.16 78.05,-0.58 92.22,4.00 103.28,8.30 114.34,12.61 123.76,17.21 133.19,21.81 141.96,27.73 150.74,33.65 156.07,38.17 161.40,42.68 165.73,48.26 170.07,53.83 172.70,58.20 175.32,62.56 176.66,66.14 178.01,69.72 178.65,73.31 179.29,76.91 179.03,82.88 178.77,88.85 177.86,93.10 176.95,97.35 174.46,102.10 171.97,106.85 169.23,110.49 166.49,114.12 161.43,116.72 156.36,119.31 148.54,120.36 140.72,121.41 132.46,119.44 124.19,117.46 115.11,112.23 106.03,106.99 96.73,99.68 87.43,92.36 77.19,81.39 66.95,70.43 60.56,60.18 54.18,49.94 51.00,39.52 47.83,29.11 48.05,19.35 48.27,9.59 52.01,0.86 55.74,-7.86 64.97,-16.05 74.19,-24.25 84.83,-29.66 95.48,-35.08 109.01,-39.33 122.55,-43.58 133.04,-45.39 143.53,-47.20 155.52,-47.19 167.50,-47.19 177.36,-45.61 187.22,-44.03 196.19,-40.99 205.16,-37.94 212.12,-34.67 219.08,-31.41 224.46,-28.02 229.83,-24.64 235.73,-19.21 241.64,-13.78 245.75,-8.68 249.86,-3.58 252.77,0.53 255.68,4.65 257.21,7.70 258.74,10.75 259.84,14.05 260.93,17.36 261.47,20.90 262.01,24.44 261.95,27.07 261.90,29.70 260.06,33.29 258.22,36.87 257.15,38.72 256.09,40.57 253.65,42.62 251.21,44.66 250.04,45.77 248.87,46.88 248.37,47.16 247.87,47.44 247.32,47.59 246.76,47.73 246.19,47.75 245.62,47.76 245.06,47.64 244.50,47.51 243.99,47.26 243.48,47.00 243.04,46.63 242.61,46.26 242.27,45.80 241.94,45.34 241.72,44.81 241.51,44.28 241.43,43.71 241.34,43.14 241.40,42.57 241.46,42.01 241.65,41.47 241.84,40.93 242.15,40.45 242.47,39.97 242.89,39.58 243.31,39.19 242.64,34.08 241.97,28.97 244.03,22.89 246.10,16.81 248.63,11.50 251.17,6.19 254.72,1.09 258.27,-4.00 262.61,-8.56 266.95,-13.12 270.01,-15.59 273.06,-18.07 274.17,-19.20 275.29,-20.32 275.80,-20.60 276.31,-20.88 276.89,-20.98 277.47,-21.08 278.04,-20.99 278.62,-20.90 279.14,-20.63 279.66,-20.36 280.07,-19.94 280.47,-19.52 280.72,-19.00 280.98,-18.47 281.04,-17.89 281.11,-17.31 280.99,-16.73 280.87,-16.16 280.58,-15.66 280.28,-15.15 279.84,-14.77 279.40,-14.39 278.86,-14.17 278.32,-13.94 277.73,-13.91 277.15,-13.87 276.58,-14.02 276.02,-14.17 275.53,-14.49 275.04,-14.82 274.69,-15.28 274.33,-15.74 274.13,-16.29 273.94,-16.85 273.94,-17.43 273.93,-18.01 274.11,-18.57 274.29,-19.13 274.64,-19.60 274.99,-20.06 275.47,-20.40 275.95,-20.73 276.51,-20.89 277.08,-21.05 277.66,-21.03 278.24,-21.00 278.79,-20.79 279.34,-20.58 279.78,-20.21 280.23,-19.83 280.54,-19.33 280.85,-18.84 280.98,-18.27 281.11,-17.70 281.05,-17.11 280.99,-16.53 280.75,-16.00 280.51,-15.47 280.12,-15.04 279.72,-14.61 279.72,-14.61 279.72,-14.61 278.35,-13.81 276.99,-13.01 274.21,-10.96 271.43,-8.91 267.53,-4.64 263.63,-0.37 260.56,4.33 257.49,9.04 255.40,14.05 253.31,19.06 251.80,24.46 250.30,29.87 249.92,34.26 249.53,38.64 249.20,42.76 248.87,46.88 248.37,47.16 247.87,47.44 247.32,47.59 246.77,47.73 246.19,47.75 245.62,47.76 245.06,47.64 244.51,47.51 243.99,47.26 243.48,47.00 243.04,46.63 242.61,46.26 242.27,45.80 241.94,45.34 241.72,44.81 241.51,44.28 241.43,43.71 241.34,43.14 241.40,42.57 241.46,42.01 241.65,41.47 241.84,40.93 242.15,40.45 242.47,39.97 242.89,39.58 243.31,39.19 244.62,38.29 245.94,37.39 248.64,35.15 251.35,32.92 253.19,29.07 255.04,25.22 254.81,22.19 254.58,19.16 253.87,16.13 253.16,13.10 252.26,10.38 251.37,7.66 248.57,3.68 245.76,-0.29 241.91,-5.11 238.06,-9.93 232.54,-15.07 227.01,-20.21 221.93,-23.43 216.84,-26.66 210.15,-29.81 203.46,-32.97 194.92,-35.91 186.37,-38.85 176.92,-40.39 167.48,-41.93 155.94,-41.98 144.41,-42.02 134.26,-40.29 124.11,-38.56 110.97,-34.47 97.84,-30.38 87.73,-25.32 77.61,-20.26 69.03,-12.91 60.44,-5.57 56.98,2.15 53.51,9.88 53.21,18.78 52.90,27.68 55.80,37.43 58.70,47.18 64.77,57.00 70.85,66.82 80.79,77.49 90.74,88.17 99.74,95.26 108.73,102.35 117.14,107.29 125.54,112.23 132.85,114.11 140.16,115.98 147.09,115.13 154.01,114.29 158.08,112.42 162.16,110.55 164.48,107.34 166.80,104.13 168.92,100.07 171.04,96.01 171.84,92.32 172.65,88.62 172.78,83.20 172.90,77.77 172.63,74.65 172.35,71.53 171.53,68.41 170.71,65.30 168.25,61.23 165.79,57.15 161.82,52.00 157.84,46.85 152.74,42.56 147.63,38.27 139.17,32.59 130.71,26.92 121.47,22.49 112.24,18.07 101.31,13.92 90.37,9.78 76.52,5.43 62.68,1.08 51.03,-1.07 39.37,-3.23 32.28,-3.01 25.18,-2.79 20.41,-2.42 15.63,-2.06 11.18,-1.02 6.73,0.01 4.32,1.43 1.90,2.86 1.53,3.04 1.16,3.23 0.76,3.32 0.35,3.42 -0.05,3.41 -0.46,3.40 -0.87,3.30 -1.27,3.19 -1.63,2.99 -2.00,2.79 -2.30,2.51 -2.61,2.23 -2.84,1.89 -3.07,1.54 -3.21,1.15 -3.35,0.76 -3.39,0.35 -3.44,-0.05 -3.38,-0.46 -3.32,-0.87 -3.17,-1.26 -3.02,-1.64 -2.77,-1.98 -2.53,-2.32 -2.22,-2.59 -1.90,-2.86 -1.90,-2.86 L -1.90,-2.86 Z"></path></g></svg>